<svg width="21" height="26" viewBox="0 0 21 26" fill="none" xmlns="http://www.w3.org/2000/svg">
<path d="M16.8498 9.52665V8.82165C16.8498 4.95265 13.8258 1.81665 10.0998 1.81665C6.37379 1.81665 3.34979 4.95265 3.34979 8.82165V9.52665C3.351 10.3682 3.11084 11.1925 2.65779 11.9017L1.54979 13.6267C0.538794 15.2017 1.31079 17.3427 3.06979 17.8407C7.6659 19.1436 12.5337 19.1436 17.1298 17.8407C18.8888 17.3427 19.6608 15.2017 18.6498 13.6277L17.5418 11.9027C17.0884 11.1936 16.8479 10.3693 16.8488 9.52765L16.8498 9.52665Z" fill="#C7D6E5" stroke="#C7D6E5" stroke-width="2"/>
<path d="M5.59979 21.0705C6.25479 22.8185 8.02179 24.0705 10.0998 24.0705C12.1778 24.0705 13.9448 22.8185 14.5998 21.0705" stroke="#C7D6E5" stroke-width="2" stroke-linecap="round"/>
</svg>
