<svg width="21" height="21" viewBox="0 0 21 21" fill="none" xmlns="http://www.w3.org/2000/svg">
<rect x="0.154907" y="0.267578" width="20" height="20" rx="5" fill="#2199EA"/>
<path d="M16.6072 6.39087C16.1322 6.59962 15.6202 6.7368 15.0897 6.80241C15.6326 6.4863 16.052 5.98529 16.2494 5.38289C15.7374 5.68111 15.1699 5.88986 14.5716 6.00915C14.0842 5.49622 13.3995 5.198 12.6223 5.198C11.1727 5.198 9.9883 6.34315 9.9883 7.75671C9.9883 7.95949 10.013 8.15632 10.0562 8.34121C7.86014 8.23386 5.9047 7.21395 4.60313 5.66918C4.37489 6.04494 4.24535 6.4863 4.24535 6.95152C4.24535 7.84021 4.70799 8.6275 5.42355 9.07483C4.98558 9.07483 4.57845 8.95554 4.22068 8.77661V8.7945C4.22068 10.0351 5.13363 11.0729 6.34267 11.3055C5.9545 11.4082 5.54698 11.4225 5.15213 11.3472C5.31967 11.8557 5.6478 12.3006 6.09038 12.6194C6.53297 12.9382 7.06775 13.1149 7.61956 13.1246C6.68418 13.8406 5.52471 14.2276 4.33171 14.2221C4.12198 14.2221 3.91225 14.2101 3.70251 14.1863C4.87455 14.9139 6.26865 15.3374 7.76144 15.3374C12.6223 15.3374 15.2933 11.4367 15.2933 8.05492C15.2933 7.9416 15.2933 7.83424 15.2871 7.72092C15.8053 7.36306 16.2494 6.90977 16.6072 6.39087Z" fill="white"/>
</svg>
