<svg width="21" height="21" viewBox="0 0 21 21" fill="none" xmlns="http://www.w3.org/2000/svg">
<path d="M10.6169 0.458374C9.30558 0.458374 8.00705 0.717032 6.7955 1.21958C5.58395 1.72213 4.48311 2.45872 3.55583 3.38731C1.68311 5.26267 0.631021 7.80621 0.631021 10.4584C0.622292 12.7675 1.4207 15.0069 2.88784 16.7884L0.890656 18.7884C0.752093 18.929 0.658229 19.1076 0.620908 19.3016C0.583586 19.4955 0.604479 19.6963 0.680951 19.8784C0.763892 20.0583 0.898349 20.2095 1.06725 20.3128C1.23616 20.416 1.43189 20.4667 1.62961 20.4584H10.6169C13.2654 20.4584 15.8053 19.4048 17.6781 17.5294C19.5508 15.6541 20.6029 13.1105 20.6029 10.4584C20.6029 7.80621 19.5508 5.26267 17.6781 3.38731C15.8053 1.51194 13.2654 0.458374 10.6169 0.458374ZM10.6169 18.4584H4.03622L4.96491 17.5284C5.1509 17.341 5.2553 17.0876 5.2553 16.8234C5.2553 16.5592 5.1509 16.3057 4.96491 16.1184C3.65734 14.8104 2.84308 13.0889 2.66085 11.2472C2.47863 9.40542 2.93971 7.55738 3.96555 6.0179C4.99139 4.47841 6.51851 3.34273 8.28675 2.80435C10.055 2.26596 11.9549 2.35818 13.6629 3.06529C15.3708 3.7724 16.7811 5.05065 17.6535 6.68227C18.5258 8.31388 18.8063 10.1979 18.447 12.0134C18.0878 13.8288 17.1111 15.4634 15.6833 16.6386C14.2556 17.8138 12.4651 18.4569 10.6169 18.4584Z" fill="#738A9E"/>
</svg>
