<svg width="28" height="24" viewBox="0 0 28 24" fill="none" xmlns="http://www.w3.org/2000/svg">
<path d="M7.71572 12.179C7.71572 11.9017 7.8232 11.6358 8.01451 11.4397C8.20582 11.2436 8.46529 11.1335 8.73584 11.1335H17.917V4.33805C17.917 2.24714 15.7626 0.678955 13.8365 0.678955H4.14527C3.19864 0.679993 2.29108 1.06584 1.62171 1.75182C0.952338 2.43781 0.575842 3.36791 0.574829 4.33805V20.0199C0.575842 20.99 0.952338 21.9201 1.62171 22.6061C2.29108 23.2921 3.19864 23.6779 4.14527 23.679H14.3465C15.2932 23.6779 16.2007 23.2921 16.8701 22.6061C17.5395 21.9201 17.916 20.99 17.917 20.0199V13.2244H8.73584C8.46529 13.2244 8.20582 13.1143 8.01451 12.9182C7.8232 12.7221 7.71572 12.4562 7.71572 12.179ZM26.7991 11.4399L21.6985 6.21268C21.5056 6.02489 21.2488 5.92175 20.9828 5.92524C20.7168 5.92873 20.4626 6.03858 20.2745 6.23136C20.0864 6.42414 19.9792 6.68461 19.9758 6.95722C19.9724 7.22984 20.073 7.49303 20.2563 7.69069L23.615 11.1335H17.917V13.2244H23.615L20.2563 16.6672C20.1576 16.7633 20.0786 16.8787 20.0241 17.0066C19.9696 17.1345 19.9406 17.2722 19.9389 17.4118C19.9371 17.5513 19.9626 17.6898 20.0139 17.819C20.0652 17.9483 20.1413 18.0657 20.2376 18.1644C20.3338 18.2631 20.4484 18.341 20.5746 18.3936C20.7007 18.4461 20.8358 18.4723 20.972 18.4705C21.1081 18.4687 21.2425 18.439 21.3673 18.3832C21.4921 18.3273 21.6047 18.2464 21.6985 18.1452L26.7991 12.918C26.9903 12.7219 27.0977 12.4561 27.0977 12.179C27.0977 11.9018 26.9903 11.636 26.7991 11.4399Z" fill="#C8D7E6"/>
</svg>
