<svg width="27" height="21" viewBox="0 0 27 21" fill="none" xmlns="http://www.w3.org/2000/svg">
<path d="M25.1287 8.73652L23.6194 9.96459V5.98798C23.6194 4.62346 23.2001 3.44412 22.3616 2.44997C21.5231 1.45582 20.5169 0.95874 19.343 0.95874H8.57676C7.40287 0.95874 6.39668 1.45582 5.55818 2.44997C4.71969 3.44412 4.30044 4.62346 4.30044 5.98798C4.30044 6.33886 4.40106 6.63125 4.6023 6.86517C4.80354 7.09909 5.05508 7.21605 5.35694 7.21605C5.69234 7.21605 5.96066 7.09909 6.1619 6.86517C6.36314 6.63125 6.46376 6.33886 6.46376 5.98798C6.46376 5.28623 6.67338 4.69168 7.09263 4.20435C7.51188 3.71702 8.00659 3.47336 8.57676 3.47336H19.343C19.9132 3.47336 20.4079 3.71702 20.8272 4.20435C21.2464 4.69168 21.4561 5.28623 21.4561 5.98798V9.84763L19.9468 8.56108C19.3095 8.13223 18.8232 8.26868 18.4878 8.97044C18.0853 9.71118 18.1859 10.296 18.7896 10.7248L22.5629 13.4734L26.3864 10.7248C26.9566 10.296 27.074 9.71118 26.7386 8.97044C26.2355 8.38564 25.6988 8.30767 25.1287 8.73652ZM22.5629 14.7014C22.2275 14.7014 21.9591 14.8184 21.7579 15.0523C21.5567 15.2862 21.4561 15.5786 21.4561 15.9295C21.4561 16.6313 21.2464 17.2258 20.8272 17.7131C20.4079 18.2005 19.9132 18.4441 19.343 18.4441H8.57676C8.00659 18.4441 7.51188 18.2005 7.09263 17.7131C6.67338 17.2258 6.46376 16.6313 6.46376 15.9295V12.0699L7.97305 13.3564C8.04013 13.3564 8.14075 13.3759 8.27491 13.4149C8.40907 13.4539 8.50968 13.4734 8.57676 13.4734C8.84508 13.4734 9.13017 13.2979 9.43203 12.947C9.83451 12.2063 9.73389 11.6215 9.13017 11.1927L5.35694 8.44412L1.5334 11.1927C0.963227 11.6215 0.845838 12.2063 1.18124 12.947C1.55017 13.6098 2.05327 13.7463 2.69053 13.3564L4.19982 12.0699V15.9295C4.19982 17.294 4.61907 18.4734 5.45756 19.4675C6.29606 20.4617 7.30225 20.9587 8.47614 20.9587H19.2424C20.4163 20.9587 21.4225 20.4617 22.261 19.4675C23.0995 18.4734 23.5188 17.294 23.5188 15.9295C23.5523 15.5786 23.4768 15.2862 23.2924 15.0523C23.1079 14.8184 22.8647 14.7014 22.5629 14.7014Z" fill="#738A9E"/>
</svg>
