<svg width="40" height="33" viewBox="0 0 40 33" fill="none" xmlns="http://www.w3.org/2000/svg">
<path d="M0.0900879 30.4009V2.37536C0.0900879 1.5849 0.427049 0.982709 1.10097 0.568793C1.77489 0.154878 2.48626 0.0923584 3.23506 0.381237L37.8298 14.394C38.7658 14.7892 39.2338 15.4539 39.2338 16.3881C39.2338 17.3223 38.7658 17.987 37.8298 18.3822L3.23506 32.395C2.48626 32.6824 1.77489 32.6192 1.10097 32.2053C0.427049 31.7914 0.0900879 31.1899 0.0900879 30.4009ZM4.58291 27.1672L31.2029 16.3881L4.58291 5.60908V13.1544L18.0614 16.3881L4.58291 19.6218V27.1672ZM4.58291 16.3881V5.60908V27.1672V16.3881Z" fill="white"/>
</svg>
