<svg width="44" height="38" viewBox="0 0 44 38" fill="none" xmlns="http://www.w3.org/2000/svg">
<path d="M43.0814 4.50754C41.5071 5.26816 39.8102 5.768 38.052 6.00705C39.8511 4.85526 41.2413 3.02978 41.8956 0.834852C40.1987 1.92145 38.3177 2.68206 36.3346 3.1167C34.7195 1.24776 32.4501 0.161163 29.8741 0.161163C25.0696 0.161163 21.1442 4.33369 21.1442 9.48415C21.1442 10.223 21.226 10.9402 21.3691 11.6139C14.0908 11.2227 7.6098 7.50655 3.29596 1.87798C2.53951 3.24709 2.11017 4.85526 2.11017 6.55034C2.11017 9.7884 3.64352 12.657 6.01511 14.2869C4.56353 14.2869 3.21418 13.8523 2.02839 13.2003V13.2655C2.02839 17.7857 5.05421 21.5671 9.06137 22.4146C7.77484 22.7889 6.4242 22.841 5.11554 22.5668C5.67083 24.4194 6.75835 26.0404 8.22522 27.202C9.69208 28.3636 11.4645 29.0074 13.2934 29.0429C10.1933 31.6517 6.35039 33.0618 2.3964 33.0415C1.70128 33.0415 1.00616 32.9981 0.311035 32.9111C4.19553 35.5624 8.81603 37.1054 13.7637 37.1054C29.8741 37.1054 38.7266 22.8927 38.7266 10.5707C38.7266 10.1578 38.7266 9.76667 38.7062 9.35376C40.4235 8.04985 41.8956 6.39822 43.0814 4.50754Z" fill="#2199EA"/>
</svg>
