<svg width="871" height="651" viewBox="0 0 871 651" fill="none" xmlns="http://www.w3.org/2000/svg">
<g clip-path="url(#clip0_29_131)">
<path d="M69.3799 609.968L84.9607 617.489L121.384 560.966L98.388 549.866L69.3799 609.968Z" fill="#A0616A"/>
<path d="M60.9849 625.958L108.897 649.087L109.189 648.481C111.577 643.535 111.902 637.843 110.093 632.657C108.284 627.471 104.489 623.217 99.5436 620.829L99.5424 620.828L93.996 609.963L74.4618 608.72L70.2794 606.701L60.9849 625.958Z" fill="#2F2E41"/>
<path d="M185.356 631.038L202.657 631.037L210.887 564.299L185.352 564.3L185.356 631.038Z" fill="#A0616A"/>
<path d="M184.747 649.087L237.949 649.085V648.412C237.948 642.92 235.767 637.653 231.883 633.769C228 629.886 222.733 627.704 217.241 627.703H217.24L207.522 620.33L189.39 627.705L184.746 627.705L184.747 649.087Z" fill="#2F2E41"/>
<path d="M213.578 321.919L233.404 458.644L228.008 476.634L235.088 489.376L224.691 585.275L228.911 594.567L217.12 601.84H193.126L191.852 500.538L185.925 485.665V477.468L173.86 415.697L171.077 511.859L167.225 519.289C152.876 551.846 133.547 562.506 119.883 586.842L95.8878 573.844L96.3909 564.15C91.5704 561.709 103.628 554.575 104.787 549.297L106.886 539.848L120.883 510.852L121.417 500.64L117.586 431.187L119.389 337.661L150.863 313.591L213.578 321.919Z" fill="#2D2C34"/>
<path d="M269.363 130.306C272.067 140.079 276.287 149.368 281.871 157.832C294.348 176.7 312.205 191.128 331.831 202.676C333.19 203.486 334.57 204.276 335.95 205.056H349.717L350.197 203.956V203.946L350.757 202.676L350.827 202.526L350.857 202.676L351.407 205.056H358.165C358.725 204.266 359.275 203.476 359.815 202.676C360.605 201.507 361.365 200.327 362.085 199.127C363.355 197.028 364.491 194.851 365.484 192.608C365.604 192.358 365.704 192.108 365.804 191.858L365.354 191.368L367.223 183.189L363.464 182.569L367.583 169.861C367.433 169.391 367.263 168.921 367.083 168.451C364.774 162.601 360.435 158.232 355.286 154.562C349.987 150.773 343.818 147.733 338.149 144.574C335.49 143.084 332.87 141.514 330.321 139.854V139.844C327.062 137.735 323.899 135.478 320.833 133.075C320.78 133.042 320.73 133.005 320.683 132.965C320.64 132.935 320.6 132.901 320.563 132.865C306.817 122.126 295.186 108.927 286.26 93.9401L286.256 93.9394L286.253 93.9372L286.251 93.9339L286.25 93.9301C285.95 93.4501 285.67 92.9702 285.39 92.4803V92.4703C281.735 86.1827 278.589 79.6126 275.982 72.8227V72.8127C275.782 72.3128 275.602 71.8129 275.412 71.3129C275.152 71.7529 274.902 72.1928 274.662 72.6328L274.658 72.6335L274.655 72.6356L274.653 72.6389L274.652 72.6428C264.954 89.9906 264.034 110.888 269.363 130.306Z" fill="#F0F0F0"/>
<path d="M274.652 72.6428C274.555 81.9011 275.518 91.14 277.522 100.179C278.422 104.316 279.543 108.401 280.881 112.418C283.477 120.276 286.871 127.848 291.009 135.015C291.239 135.405 291.459 135.785 291.699 136.165V136.175C293.467 139.157 295.386 142.047 297.448 144.834C300.568 149.274 304.422 153.149 308.845 156.292C312.458 158.68 316.544 160.259 320.823 160.922C321.623 161.072 322.442 161.182 323.272 161.282C326.582 161.672 330.001 161.822 333.28 162.522C334.941 162.85 336.558 163.37 338.099 164.071C343.378 166.521 346.348 171.65 347.647 177.13C347.877 178.09 348.057 179.059 348.197 180.029C349.287 187.478 348.087 195.217 348.707 202.676C348.777 203.466 348.867 204.266 348.977 205.056H349.717L350.197 203.956V203.946C350.147 203.526 350.107 203.106 350.067 202.676C349.827 199.012 349.797 195.336 349.977 191.668C350.017 190.018 350.047 188.358 350.027 186.699C350.007 185.369 349.957 184.039 349.857 182.719V182.709C349.787 181.889 349.707 181.079 349.597 180.269C349.279 177.789 348.669 175.356 347.777 173.02C346.907 170.613 345.539 168.418 343.76 166.577C341.982 164.737 339.835 163.293 337.459 162.342C336.008 161.797 334.513 161.379 332.99 161.092C329.641 160.452 326.182 160.292 322.812 159.872C322.452 159.832 322.093 159.782 321.743 159.722C321.293 159.652 320.853 159.572 320.413 159.492C316.004 158.709 311.841 156.905 308.255 154.223C303.995 150.849 300.29 146.827 297.278 142.304C295.638 139.954 294.078 137.555 292.629 135.085C292.629 135.084 292.628 135.082 292.628 135.081C292.627 135.08 292.627 135.079 292.626 135.078C292.625 135.077 292.624 135.076 292.622 135.076C292.621 135.075 292.62 135.075 292.619 135.075C292.549 134.955 292.479 134.845 292.409 134.725L292.399 134.705C286.18 124.077 281.641 112.553 278.941 100.539C278.851 100.099 278.751 99.6595 278.651 99.2195C276.796 90.5452 275.901 81.693 275.982 72.8228V72.8128C275.982 72.3929 275.992 71.9829 276.002 71.563C276.022 70.7031 274.692 70.5131 274.672 71.373C274.662 71.793 274.652 72.2129 274.662 72.6328C274.661 72.6328 274.66 72.6331 274.658 72.6336C274.657 72.6341 274.656 72.6348 274.655 72.6357C274.654 72.6366 274.654 72.6378 274.653 72.639C274.653 72.6402 274.652 72.6415 274.652 72.6428Z" fill="white"/>
<path d="M292.269 135.894C288.46 137.829 284.086 138.347 279.93 137.355C275.774 136.363 272.105 133.926 269.58 130.479C269.071 129.779 270.134 128.956 270.643 129.656C272.989 132.871 276.406 135.141 280.278 136.056C284.151 136.972 288.223 136.473 291.76 134.65C292.529 134.255 293.034 135.501 292.269 135.894Z" fill="white"/>
<path d="M320.285 159.89C323.068 151.61 322.63 142.585 319.055 134.614C318.701 133.825 319.944 133.316 320.299 134.104C324.003 142.406 324.44 151.799 321.524 160.409C321.246 161.229 320.008 160.706 320.285 159.89Z" fill="white"/>
<path d="M278.265 99.3421C279.895 98.9005 281.39 98.0609 282.616 96.8987C283.841 95.7365 284.759 94.2882 285.286 92.6837C285.554 91.8601 286.792 92.384 286.526 93.2023C285.935 94.9723 284.92 96.5706 283.568 97.8576C282.217 99.1447 280.572 100.081 278.775 100.585C278.61 100.647 278.427 100.644 278.264 100.576C278.102 100.507 277.971 100.38 277.899 100.219C277.832 100.054 277.833 99.8692 277.902 99.705C277.97 99.5409 278.101 99.4104 278.265 99.3421Z" fill="white"/>
<path d="M330.321 139.844V139.854C330.631 146.994 331.524 154.097 332.99 161.092V161.102C333.07 161.582 333.18 162.052 333.28 162.522C335.693 173.339 339.076 183.917 343.388 194.128C344.578 197.007 345.824 199.857 347.127 202.676C347.487 203.476 347.857 204.266 348.237 205.056H349.717L350.197 203.956V203.946L350.757 202.676L350.827 202.526L350.857 202.676L351.407 205.056H365.704L368.483 202.676L372.532 199.207L366.873 193.028L365.944 192.008L365.804 191.858L365.354 191.368L367.223 183.189L363.464 182.569L367.583 169.861L369.533 163.851L370.023 162.342L372.872 153.553L381.47 155.162L382.87 150.263C380.293 144.289 378.148 138.137 376.451 131.855C376.441 131.805 376.421 131.765 376.411 131.715C371.869 114.795 370.506 97.1793 372.392 79.762V79.752C372.452 79.192 372.522 78.6221 372.602 78.0722V78.0522C373.459 70.8341 374.904 63.698 376.921 56.7149C377.061 56.1849 377.221 55.665 377.371 55.1451C376.911 55.345 376.462 55.535 376.002 55.735L375.992 55.745H375.972C375.242 56.0649 374.512 56.4049 373.802 56.7649C356.746 65.0538 344.198 80.6119 337.07 98.5496C337.05 98.5996 337.03 98.6396 337.01 98.6896C333.29 108.093 331.073 118.023 330.441 128.116C330.201 132.021 330.161 135.935 330.321 139.844Z" fill="#F0F0F0"/>
<path d="M356.266 205.056H357.845C358.345 204.246 358.885 203.456 359.425 202.676C360.285 201.467 361.171 200.283 362.085 199.127C362.874 198.127 363.664 197.137 364.454 196.147C365.274 195.117 366.084 194.088 366.874 193.028L365.944 192.008C365.794 192.208 365.644 192.408 365.484 192.608C362.924 195.977 360.155 199.217 357.785 202.676C357.255 203.456 356.746 204.246 356.266 205.056Z" fill="white"/>
<path d="M377.703 55.7037C377.443 56.0337 377.173 56.3736 376.923 56.7136C374.974 59.2433 373.131 61.8529 371.394 64.5426C368.302 69.2882 365.556 74.2504 363.176 79.3907C362.986 79.7907 362.796 80.2006 362.616 80.6106C357.524 91.8426 354.206 103.797 352.778 116.046C352.758 116.166 352.748 116.276 352.738 116.396C352.408 119.256 352.195 122.125 352.098 125.005C351.78 130.428 352.316 135.867 353.688 141.123C353.888 141.813 354.108 142.493 354.348 143.153C354.949 144.77 355.703 146.327 356.597 147.802C357.24 148.879 357.955 149.911 358.737 150.892C359.207 151.492 359.697 152.082 360.217 152.651C360.517 152.981 360.827 153.311 361.137 153.641C361.397 153.891 361.646 154.151 361.906 154.401C364.606 157.021 367.585 159.451 370.025 162.34L369.535 163.85C367.185 160.87 364.156 158.401 361.426 155.801C359.713 154.19 358.153 152.422 356.767 150.522C356.588 150.262 356.398 150.002 356.228 149.732C355.301 148.378 354.501 146.942 353.838 145.442C353.498 144.693 353.188 143.923 352.908 143.123C351.275 137.953 350.531 132.543 350.709 127.125C350.741 123.654 350.948 120.186 351.329 116.736C351.369 116.286 351.419 115.846 351.479 115.396C352.492 107.184 354.342 99.0962 356.997 91.2592C360.359 81.3171 364.982 71.8476 370.755 63.0828C372.404 60.5731 374.154 58.1234 376.004 55.7337C376.244 55.4037 376.493 55.0838 376.753 54.7538C377.283 54.0739 378.233 55.0238 377.703 55.7037Z" fill="white"/>
<path d="M351.954 116.862C347.748 116.114 343.944 113.894 341.222 110.599C338.501 107.305 337.039 103.15 337.098 98.8769C337.102 98.7027 337.174 98.5368 337.298 98.4142C337.421 98.2917 337.588 98.222 337.762 98.2199C337.937 98.2177 338.105 98.2834 338.232 98.4029C338.358 98.5224 338.434 98.6865 338.442 98.8605C338.38 102.839 339.742 106.709 342.282 109.772C344.823 112.835 348.374 114.889 352.296 115.563C353.148 115.71 352.802 117.009 351.954 116.862Z" fill="white"/>
<path d="M359.876 152.89C367.084 147.956 372.167 140.485 374.112 131.969C374.304 131.125 375.603 131.467 375.411 132.31C373.371 141.169 368.066 148.932 360.554 154.051C359.838 154.538 359.164 153.375 359.876 152.89Z" fill="white"/>
<path d="M362.778 79.2456C364.345 79.8746 366.044 80.1043 367.722 79.9142C369.4 79.7242 371.005 79.1202 372.392 78.1567C373.102 77.6605 373.775 78.8242 373.07 79.3172C371.532 80.3746 369.759 81.0395 367.906 81.2536C366.052 81.4677 364.174 81.2246 362.436 80.5455C362.267 80.4952 362.123 80.3824 362.034 80.2299C361.945 80.0775 361.918 79.8969 361.957 79.7249C362.003 79.553 362.115 79.4062 362.269 79.3165C362.422 79.2268 362.605 79.2013 362.778 79.2456Z" fill="white"/>
<path d="M356.663 214.006C377.181 214.006 393.814 197.371 393.814 176.852C393.814 156.333 377.181 139.698 356.663 139.698C336.146 139.698 319.513 156.333 319.513 176.852C319.513 197.371 336.146 214.006 356.663 214.006Z" fill="#2199EA"/>
<path d="M351.803 192.176C349.143 192.175 346.496 191.812 343.934 191.096C343.688 191.031 343.474 190.88 343.33 190.67C343.186 190.461 343.122 190.207 343.15 189.954C343.168 189.695 343.278 189.452 343.461 189.268C343.643 189.083 343.885 188.971 344.144 188.95C347.983 188.563 349.476 187.263 350.024 186.522C350.052 186.486 350.07 186.442 350.077 186.396C350.083 186.35 350.078 186.303 350.062 186.26C350.047 186.22 350.022 186.184 349.989 186.156C349.956 186.128 349.917 186.109 349.875 186.1C348.666 185.862 347.516 185.386 346.493 184.7C346.226 184.515 346.008 184.268 345.857 183.981C345.706 183.693 345.628 183.374 345.628 183.049C345.627 182.725 345.706 182.405 345.856 182.117C346.007 181.83 346.225 181.583 346.491 181.398C346.543 181.363 346.554 181.333 346.549 181.295C346.546 181.272 346.537 181.25 346.523 181.233C346.509 181.215 346.49 181.201 346.469 181.193C345.643 180.935 344.88 180.507 344.23 179.936C343.58 179.364 343.057 178.663 342.695 177.878C342.537 177.534 342.48 177.154 342.529 176.779C342.579 176.405 342.733 176.052 342.974 175.761C343.217 175.461 343.54 175.235 343.905 175.11C344.271 174.985 344.665 174.966 345.041 175.055C343.642 173.376 342.596 171.433 341.966 169.34C341.862 168.915 341.899 168.468 342.072 168.065C342.245 167.663 342.544 167.328 342.923 167.11C343.303 166.893 343.744 166.805 344.178 166.859C344.612 166.914 345.017 167.108 345.331 167.413C347.558 169.597 350.326 171.149 353.351 171.91C354.247 172.119 355.189 171.966 355.973 171.485C356.757 171.004 357.32 170.234 357.541 169.34C357.943 167.691 358.885 166.224 360.217 165.171C361.548 164.118 363.193 163.54 364.891 163.528C368.919 163.528 370.431 165.381 370.888 166.16L373.731 164.452C373.809 164.405 373.899 164.381 373.991 164.384C374.082 164.387 374.171 164.417 374.246 164.469C374.321 164.521 374.379 164.594 374.413 164.679C374.447 164.764 374.456 164.857 374.439 164.946C374.264 166.076 373.855 167.156 373.237 168.118L374.763 167.813C374.877 167.79 374.995 167.804 375.1 167.852C375.205 167.9 375.293 167.98 375.35 168.081C375.407 168.182 375.431 168.298 375.418 168.413C375.405 168.528 375.356 168.637 375.278 168.722C374.798 169.248 374.097 170.004 373.487 170.617C372.766 171.346 372.304 172.29 372.17 173.307C369.886 189.724 358.429 192.176 351.803 192.176Z" fill="white"/>
<path d="M867.493 158.871H437.719C436.791 158.871 435.901 158.502 435.244 157.846C434.588 157.19 434.22 156.3 434.22 155.371C434.22 154.443 434.588 153.553 435.244 152.897C435.901 152.241 436.791 151.872 437.719 151.872H867.493C868.421 151.872 869.311 152.241 869.967 152.897C870.624 153.553 870.992 154.443 870.992 155.371C870.992 156.3 870.624 157.19 869.967 157.846C869.311 158.502 868.421 158.871 867.493 158.871Z" fill="#E6E7E8"/>
<path d="M867.493 180.352H437.719C436.791 180.352 435.901 179.983 435.244 179.327C434.588 178.67 434.22 177.78 434.22 176.852C434.22 175.924 434.588 175.034 435.244 174.378C435.901 173.721 436.791 173.353 437.719 173.353H867.493C868.421 173.353 869.311 173.721 869.967 174.378C870.624 175.034 870.992 175.924 870.992 176.852C870.992 177.78 870.624 178.67 869.967 179.327C869.311 179.983 868.421 180.352 867.493 180.352Z" fill="#E6E7E8"/>
<path d="M725.406 201.832H437.719C436.791 201.832 435.901 201.463 435.244 200.807C434.588 200.151 434.22 199.26 434.22 198.332C434.22 197.404 434.588 196.514 435.244 195.858C435.901 195.201 436.791 194.833 437.719 194.833H725.406C726.334 194.833 727.224 195.201 727.881 195.858C728.537 196.514 728.906 197.404 728.906 198.332C728.906 199.26 728.537 200.151 727.881 200.807C727.224 201.463 726.334 201.832 725.406 201.832Z" fill="#E6E7E8"/>
<path d="M356.663 345.471C377.181 345.471 393.814 328.837 393.814 308.318C393.814 287.798 377.181 271.164 356.663 271.164C336.146 271.164 319.513 287.798 319.513 308.318C319.513 328.837 336.146 345.471 356.663 345.471Z" fill="#E6E6E6"/>
<path d="M867.493 290.337H437.719C436.791 290.337 435.901 289.968 435.244 289.312C434.588 288.655 434.22 287.765 434.22 286.837C434.22 285.909 434.588 285.019 435.244 284.363C435.901 283.706 436.791 283.337 437.719 283.337H867.493C868.421 283.337 869.311 283.706 869.967 284.363C870.624 285.019 870.992 285.909 870.992 286.837C870.992 287.765 870.624 288.655 869.967 289.312C869.311 289.968 868.421 290.337 867.493 290.337Z" fill="#E6E7E8"/>
<path d="M867.493 311.817H437.719C436.791 311.817 435.901 311.449 435.244 310.792C434.588 310.136 434.22 309.246 434.22 308.318C434.22 307.39 434.588 306.499 435.244 305.843C435.901 305.187 436.791 304.818 437.719 304.818H867.493C868.421 304.818 869.311 305.187 869.967 305.843C870.624 306.499 870.992 307.39 870.992 308.318C870.992 309.246 870.624 310.136 869.967 310.792C869.311 311.449 868.421 311.817 867.493 311.817Z" fill="#E6E7E8"/>
<path d="M725.406 333.298H437.719C436.791 333.298 435.901 332.929 435.244 332.273C434.588 331.616 434.22 330.726 434.22 329.798C434.22 328.87 434.588 327.98 435.244 327.323C435.901 326.667 436.791 326.298 437.719 326.298H725.406C726.334 326.298 727.224 326.667 727.881 327.323C728.537 327.98 728.906 328.87 728.906 329.798C728.906 330.726 728.537 331.616 727.881 332.273C727.224 332.929 726.334 333.298 725.406 333.298Z" fill="#E6E7E8"/>
<path d="M356.663 476.937C377.181 476.937 393.814 460.303 393.814 439.783C393.814 419.264 377.181 402.63 356.663 402.63C336.146 402.63 319.513 419.264 319.513 439.783C319.513 460.303 336.146 476.937 356.663 476.937Z" fill="#2199EA"/>
<path d="M351.803 455.107C349.143 455.106 346.496 454.743 343.934 454.027C343.688 453.962 343.474 453.811 343.33 453.602C343.186 453.392 343.122 453.138 343.15 452.885C343.168 452.627 343.278 452.383 343.461 452.199C343.643 452.015 343.885 451.902 344.144 451.881C347.983 451.495 349.476 450.194 350.024 449.454C350.052 449.417 350.07 449.373 350.077 449.327C350.083 449.282 350.078 449.235 350.062 449.191C350.047 449.151 350.022 449.115 349.989 449.087C349.956 449.059 349.917 449.04 349.875 449.032C348.666 448.794 347.516 448.317 346.493 447.631C346.226 447.446 346.008 447.2 345.857 446.912C345.706 446.625 345.628 446.305 345.628 445.981C345.627 445.656 345.706 445.336 345.856 445.049C346.007 444.761 346.225 444.514 346.491 444.329C346.543 444.294 346.554 444.265 346.549 444.226C346.546 444.203 346.537 444.182 346.523 444.164C346.509 444.146 346.49 444.132 346.469 444.125C345.643 443.866 344.88 443.438 344.23 442.867C343.58 442.296 343.057 441.595 342.695 440.809C342.537 440.466 342.48 440.085 342.529 439.71C342.579 439.336 342.733 438.983 342.974 438.693C343.217 438.392 343.54 438.166 343.905 438.041C344.271 437.916 344.665 437.897 345.041 437.986C343.642 436.308 342.596 434.364 341.966 432.272C341.862 431.846 341.899 431.399 342.072 430.997C342.245 430.594 342.544 430.259 342.923 430.042C343.303 429.824 343.744 429.736 344.178 429.79C344.612 429.845 345.017 430.039 345.331 430.344C347.558 432.528 350.326 434.08 353.351 434.841C354.247 435.05 355.189 434.897 355.973 434.416C356.757 433.935 357.32 433.165 357.541 432.272C357.943 430.622 358.885 429.155 360.217 428.102C361.548 427.049 363.193 426.471 364.891 426.459C368.919 426.459 370.431 428.312 370.888 429.092L373.731 427.383C373.809 427.336 373.899 427.312 373.991 427.315C374.082 427.318 374.171 427.348 374.246 427.4C374.321 427.452 374.379 427.526 374.413 427.61C374.447 427.695 374.456 427.788 374.439 427.878C374.264 429.007 373.855 430.088 373.237 431.049L374.763 430.744C374.877 430.722 374.995 430.735 375.1 430.783C375.205 430.831 375.293 430.912 375.35 431.012C375.407 431.113 375.431 431.229 375.418 431.345C375.405 431.46 375.356 431.568 375.278 431.653C374.798 432.18 374.097 432.935 373.487 433.548C372.766 434.277 372.304 435.222 372.17 436.238C369.886 452.656 358.429 455.107 351.803 455.107Z" fill="white"/>
<path d="M867.493 421.802H437.719C436.791 421.802 435.901 421.434 435.244 420.777C434.588 420.121 434.22 419.231 434.22 418.303C434.22 417.375 434.588 416.484 435.244 415.828C435.901 415.172 436.791 414.803 437.719 414.803H867.493C868.421 414.803 869.311 415.172 869.967 415.828C870.624 416.484 870.992 417.375 870.992 418.303C870.992 419.231 870.624 420.121 869.967 420.777C869.311 421.434 868.421 421.802 867.493 421.802Z" fill="#E6E7E8"/>
<path d="M867.493 443.283H437.719C436.791 443.283 435.901 442.914 435.244 442.258C434.588 441.602 434.22 440.712 434.22 439.783C434.22 438.855 434.588 437.965 435.244 437.309C435.901 436.652 436.791 436.284 437.719 436.284H867.493C868.421 436.284 869.311 436.652 869.967 437.309C870.624 437.965 870.992 438.855 870.992 439.783C870.992 440.712 870.624 441.602 869.967 442.258C869.311 442.914 868.421 443.283 867.493 443.283Z" fill="#E6E7E8"/>
<path d="M725.406 464.763H437.719C436.791 464.763 435.901 464.394 435.244 463.738C434.588 463.082 434.22 462.192 434.22 461.264C434.22 460.335 434.588 459.445 435.244 458.789C435.901 458.133 436.791 457.764 437.719 457.764H725.406C726.334 457.764 727.224 458.133 727.881 458.789C728.537 459.445 728.906 460.335 728.906 461.264C728.906 462.192 728.537 463.082 727.881 463.738C727.224 464.394 726.334 464.763 725.406 464.763Z" fill="#E6E7E8"/>
<path d="M239.134 348.527C240.495 347.389 241.59 345.966 242.343 344.359C243.095 342.752 243.485 341 243.487 339.225C243.489 337.451 243.101 335.698 242.352 334.089C241.603 332.481 240.51 331.056 239.151 329.916L234.903 231.426L220.328 203.947L204.695 200.901L208.29 246.054L221.402 332.007C219.637 334.417 218.818 337.391 219.1 340.366C219.382 343.34 220.745 346.107 222.93 348.143C225.116 350.18 227.973 351.344 230.959 351.414C233.946 351.485 236.854 350.458 239.134 348.527Z" fill="#A0616A"/>
<path d="M172.351 127.685C189.568 127.685 203.525 113.727 203.525 96.5089C203.525 79.2907 189.568 65.3326 172.351 65.3326C155.134 65.3326 141.177 79.2907 141.177 96.5089C141.177 113.727 155.134 127.685 172.351 127.685Z" fill="#ED8997"/>
<path d="M176.64 346.751C135.543 346.752 104.714 331.272 104.292 331.056L103.927 330.869L104.04 330.474C105.143 326.61 106.188 320.127 104.297 319.182C104.093 319.104 103.913 318.976 103.772 318.81C103.631 318.643 103.534 318.444 103.491 318.231C103.382 317.454 104.16 316.744 105.237 315.761C107.326 313.852 110.188 311.239 108.509 307.044C105.55 299.646 113.87 261.741 114.408 259.311L110.855 198.89C110.207 187.362 113.548 175.962 120.316 166.608C127.084 157.254 136.866 150.515 148.018 147.525L148.097 147.504L148.178 147.509C149.334 147.574 150.557 143.65 151.485 140.778C152.856 136.533 153.761 133.925 155.305 134.036C167.26 134.807 175.225 135.311 180.533 135.641C190.598 136.266 192.361 148.508 192.578 150.463C203.411 157.064 211.882 166.919 216.784 178.62C221.686 190.322 222.767 203.273 219.873 215.625L214.857 237.196L210.425 247.56L211.885 268.008C218.761 273.726 216.79 285.422 216.399 287.399C222.95 294.177 218.927 302.154 217.951 303.843C219.628 305.892 220.769 308.326 221.272 310.926C221.775 313.526 221.624 316.21 220.832 318.736L226.866 338.348L226.411 338.506C210.402 344.034 193.576 346.821 176.64 346.751Z" fill="#E6E6E6"/>
<path d="M202.566 239.056L182.983 201.395L196.523 165.284L196.809 165.238C202.042 164.37 207.415 165.092 212.233 167.31C217.05 169.529 221.092 173.142 223.835 177.682C228.249 184.945 231.353 192.927 233.007 201.264C237.391 224.647 238.914 229.366 238.929 229.411L239.098 229.922L202.566 239.056Z" fill="#E6E6E6"/>
<path d="M220.692 349.745C241.209 349.745 257.842 333.11 257.842 312.591C257.842 292.072 241.209 275.437 220.692 275.437C200.174 275.437 183.541 292.072 183.541 312.591C183.541 333.11 200.174 349.745 220.692 349.745Z" fill="#2199EA"/>
<path d="M215.831 327.915C213.171 327.914 210.524 327.551 207.962 326.835C207.716 326.77 207.502 326.619 207.358 326.409C207.215 326.2 207.151 325.946 207.178 325.693C207.196 325.434 207.306 325.191 207.489 325.006C207.671 324.822 207.914 324.709 208.172 324.689C212.012 324.302 213.504 323.002 214.052 322.261C214.08 322.224 214.098 322.181 214.105 322.135C214.112 322.089 214.106 322.042 214.09 321.999C214.075 321.959 214.05 321.923 214.017 321.895C213.985 321.867 213.945 321.847 213.903 321.839C212.694 321.601 211.544 321.125 210.521 320.438C210.254 320.254 210.036 320.007 209.885 319.72C209.735 319.432 209.656 319.113 209.656 318.788C209.656 318.464 209.734 318.144 209.885 317.856C210.035 317.569 210.253 317.322 210.52 317.137C210.571 317.102 210.582 317.072 210.577 317.033C210.574 317.011 210.566 316.989 210.551 316.971C210.537 316.954 210.518 316.94 210.497 316.932C209.671 316.674 208.909 316.246 208.259 315.674C207.609 315.103 207.085 314.402 206.723 313.617C206.565 313.273 206.508 312.893 206.557 312.518C206.607 312.144 206.761 311.791 207.002 311.5C207.245 311.199 207.568 310.974 207.934 310.849C208.3 310.724 208.693 310.705 209.069 310.794C207.67 309.115 206.624 307.172 205.994 305.079C205.89 304.654 205.928 304.207 206.1 303.804C206.273 303.402 206.572 303.067 206.952 302.849C207.332 302.632 207.772 302.544 208.206 302.598C208.64 302.653 209.045 302.847 209.36 303.151C211.586 305.336 214.354 306.888 217.379 307.649C218.275 307.858 219.217 307.705 220.001 307.224C220.786 306.743 221.349 305.973 221.569 305.079C221.972 303.43 222.913 301.963 224.245 300.91C225.577 299.857 227.222 299.279 228.919 299.267C232.948 299.267 234.459 301.12 234.916 301.899L237.759 300.191C237.837 300.144 237.928 300.12 238.019 300.123C238.111 300.126 238.199 300.155 238.274 300.208C238.349 300.26 238.407 300.333 238.441 300.418C238.476 300.503 238.485 300.596 238.467 300.685C238.293 301.815 237.883 302.895 237.265 303.857L238.791 303.552C238.905 303.529 239.023 303.543 239.128 303.591C239.234 303.639 239.321 303.719 239.378 303.82C239.435 303.921 239.459 304.037 239.446 304.152C239.433 304.267 239.384 304.375 239.306 304.461C238.826 304.987 238.125 305.743 237.516 306.356C236.795 307.085 236.332 308.029 236.198 309.046C233.914 325.463 222.458 327.915 215.831 327.915Z" fill="white"/>
<path d="M185.186 351.197C183.499 350.649 181.952 349.737 180.655 348.526C179.358 347.315 178.343 345.835 177.68 344.189C177.017 342.543 176.723 340.772 176.818 339C176.914 337.228 177.397 335.499 178.233 333.934L145.461 240.96L148.742 210.028L162.113 201.373L175.609 244.612L195.482 329.257C198.018 330.836 199.886 333.29 200.734 336.155C201.581 339.02 201.348 342.096 200.079 344.8C198.81 347.505 196.593 349.65 193.848 350.829C191.103 352.008 188.021 352.139 185.186 351.197Z" fill="#A0616A"/>
<path d="M127.803 177.494L158.797 165.495L176.793 225.488L135.254 238.651L127.803 177.494Z" fill="#E6E6E6"/>
<path d="M145.918 116.105C145.533 116.107 145.151 116.045 144.786 115.923C143.353 115.295 142.156 114.23 141.365 112.881C135.839 104.934 133.172 94.3384 133.436 81.3879C133.548 75.9091 134.168 68.9041 138.005 63.3203C141.231 58.6251 147.757 54.899 153.84 56.7694C153.508 54.3268 155.159 51.9004 157.12 50.6993C159.423 49.2884 162.197 49.0286 164.643 48.7987C170.821 48.2197 177.206 47.6211 183.462 48.8065C190.475 50.1369 196.21 53.7522 199.195 58.7252L199.256 58.8814L199.863 61.8283C199.944 62.2245 200.111 62.5983 200.351 62.9239C200.59 63.2496 200.898 63.5194 201.252 63.7147C201.606 63.9101 201.999 64.0264 202.402 64.0555C202.805 64.0847 203.21 64.0261 203.589 63.8837C204.002 63.7282 204.449 63.6831 204.884 63.7529C205.32 63.8226 205.731 64.0049 206.075 64.2816C206.419 64.5583 206.684 64.92 206.846 65.3309C207.008 65.7417 207.059 66.1877 206.996 66.6246L206.826 67.7968L208.591 67.4668C209.032 67.3844 209.487 67.4206 209.91 67.5715C210.333 67.7225 210.708 67.9828 210.998 68.326C211.287 68.6692 211.481 69.0831 211.558 69.5254C211.636 69.9676 211.595 70.4226 211.439 70.8438L210.941 72.1918C211.306 72.1941 211.666 72.2712 212.001 72.4183C212.335 72.5654 212.635 72.7794 212.883 73.0471C213.24 73.4308 213.465 73.9186 213.525 74.4393C213.585 74.9599 213.477 75.486 213.216 75.9408C211.245 79.3125 208.448 82.1269 205.088 84.1189C203.253 85.2234 201.245 86.013 199.149 86.4551C185.545 89.391 171.519 89.8128 157.763 87.6995C158.577 90.4128 158.891 93.2518 158.688 96.0774C158.248 99.6106 156.174 102.526 153.404 103.505C152.773 103.71 152.127 103.866 151.472 103.971C150.846 104.068 150.23 104.218 149.629 104.419C148.738 104.746 147.949 105.303 147.342 106.032C146.735 106.761 146.331 107.638 146.17 108.573C146.01 109.509 146.099 110.47 146.429 111.36C146.759 112.25 147.318 113.037 148.049 113.642L149.415 112.218L148.971 114.028C148.878 114.381 148.712 114.709 148.484 114.993C148.256 115.278 147.971 115.51 147.647 115.677C147.115 115.961 146.521 116.108 145.918 116.105Z" fill="#212123"/>
<path d="M282.612 649.81C282.613 649.967 282.582 650.122 282.523 650.266C282.463 650.411 282.375 650.542 282.265 650.653C282.154 650.763 282.023 650.851 281.878 650.91C281.734 650.97 281.579 651.001 281.423 651H1.18974C0.874201 651 0.571593 650.875 0.34847 650.652C0.125347 650.428 0 650.126 0 649.81C0 649.495 0.125347 649.192 0.34847 648.969C0.571593 648.746 0.874201 648.62 1.18974 648.62H281.423C281.579 648.62 281.734 648.65 281.878 648.71C282.023 648.77 282.154 648.857 282.265 648.968C282.375 649.078 282.463 649.21 282.523 649.354C282.582 649.499 282.613 649.654 282.612 649.81Z" fill="#CCCCCC"/>
<path d="M870.007 36.5479H320.796C320.53 36.542 320.278 36.4325 320.092 36.2427C319.907 36.053 319.803 35.7981 319.803 35.5327C319.803 35.2672 319.907 35.0124 320.092 34.8226C320.278 34.6329 320.53 34.5233 320.796 34.5174H870.007C870.272 34.5233 870.525 34.6329 870.71 34.8226C870.896 35.0124 871 35.2672 871 35.5327C871 35.7981 870.896 36.053 870.71 36.2427C870.525 36.4325 870.272 36.542 870.007 36.5479Z" fill="#CACACA"/>
<path d="M343.146 22.3348C349.179 22.3348 354.069 17.335 354.069 11.1674C354.069 4.99982 349.179 0 343.146 0C337.114 0 332.223 4.99982 332.223 11.1674C332.223 17.335 337.114 22.3348 343.146 22.3348Z" fill="#675CEE"/>
<path d="M380.881 22.3348C386.913 22.3348 391.804 17.335 391.804 11.1674C391.804 4.99982 386.913 0 380.881 0C374.848 0 369.958 4.99982 369.958 11.1674C369.958 17.335 374.848 22.3348 380.881 22.3348Z" fill="#675CEE"/>
<path d="M418.615 22.3348C424.648 22.3348 429.538 17.335 429.538 11.1674C429.538 4.99982 424.648 0 418.615 0C412.582 0 407.692 4.99982 407.692 11.1674C407.692 17.335 412.582 22.3348 418.615 22.3348Z" fill="#675CEE"/>
<path d="M847.398 6.83076H820.587C820.057 6.81904 819.551 6.59997 819.18 6.22047C818.809 5.84096 818.601 5.33118 818.601 4.80031C818.601 4.26944 818.809 3.75967 819.18 3.38016C819.551 3.00066 820.057 2.78159 820.587 2.76987H847.398C847.929 2.78159 848.434 3.00066 848.805 3.38016C849.177 3.75967 849.384 4.26944 849.384 4.80031C849.384 5.33118 849.177 5.84096 848.805 6.22047C848.434 6.59997 847.929 6.81904 847.398 6.83076Z" fill="#675CEE"/>
<path d="M847.398 14.4449H820.587C820.057 14.4332 819.551 14.2141 819.18 13.8346C818.809 13.4551 818.601 12.9453 818.601 12.4144C818.601 11.8836 818.809 11.3738 819.18 10.9943C819.551 10.6148 820.057 10.3957 820.587 10.384H847.398C847.929 10.3957 848.434 10.6148 848.805 10.9943C849.177 11.3738 849.384 11.8836 849.384 12.4144C849.384 12.9453 849.177 13.4551 848.805 13.8346C848.434 14.2141 847.929 14.4332 847.398 14.4449Z" fill="#675CEE"/>
<path d="M847.398 22.059H820.587C820.057 22.0473 819.551 21.8283 819.18 21.4487C818.809 21.0692 818.601 20.5595 818.601 20.0286C818.601 19.4977 818.809 18.988 819.18 18.6085C819.551 18.2289 820.057 18.0099 820.587 17.9982H847.398C847.929 18.0099 848.434 18.2289 848.805 18.6085C849.177 18.988 849.384 19.4977 849.384 20.0286C849.384 20.5595 849.177 21.0692 848.805 21.4487C848.434 21.8283 847.929 22.0473 847.398 22.059Z" fill="#675CEE"/>
</g>
<defs>
<clipPath id="clip0_29_131">
<rect width="871" height="651" fill="white"/>
</clipPath>
</defs>
</svg>
