<svg width="19" height="20" viewBox="0 0 19 20" fill="none" xmlns="http://www.w3.org/2000/svg">
<path fill-rule="evenodd" clip-rule="evenodd" d="M11.668 2.696L9.34395 0.447998L7.01995 2.696L3.81895 2.243L3.25995 5.427L0.403954 6.943L1.82395 9.848L0.403954 12.752L3.25995 14.268L3.81895 17.452L7.01995 17L9.34395 19.248L11.668 17L14.869 17.452L15.428 14.268L18.284 12.752L16.864 9.848L18.284 6.943L15.428 5.427L14.869 2.243L11.668 2.696ZM4.57795 10.271L8.00595 13.699L13.689 7.493L12.342 6.246L7.94195 11.041L5.86995 8.969L4.57795 10.271Z" fill="url(#paint0_linear_23_7)"/>
<path fill-rule="evenodd" clip-rule="evenodd" d="M11.445 3.38102L9.34395 1.34802L7.24295 3.38102L4.34795 2.97102L3.84295 5.85102L1.25995 7.22102L2.54395 9.84802L1.25995 12.475L3.84295 13.845L4.34795 16.725L7.24295 16.315L9.34395 18.348L11.445 16.315L14.34 16.725L14.845 13.845L17.428 12.475L16.144 9.84802L17.428 7.22102L14.845 5.85102L14.34 2.97102L11.445 3.38102ZM4.57695 10.271L8.00595 13.699L13.689 7.49302L12.342 6.24602L7.94195 11.041L5.86995 8.96902L4.57695 10.271Z" fill="url(#paint1_linear_23_7)"/>
<path fill-rule="evenodd" clip-rule="evenodd" d="M4.57695 10.271L8.00595 13.699L13.656 7.52897L13.694 7.49597L13.689 8.89397L8.00595 15.1L4.57695 11.671L4.57395 10.266L4.57895 10.269L4.57695 10.271Z" fill="#D18800"/>
<defs>
<linearGradient id="paint0_linear_23_7" x1="2.75495" y1="1.343" x2="16.427" y2="20.356" gradientUnits="userSpaceOnUse">
<stop stop-color="#F4E72A"/>
<stop offset="0.539" stop-color="#CD8105"/>
<stop offset="0.68" stop-color="#CB7B00"/>
<stop offset="1" stop-color="#F4E72A"/>
</linearGradient>
<linearGradient id="paint1_linear_23_7" x1="3.69895" y1="2.24302" x2="14.705" y2="17.981" gradientUnits="userSpaceOnUse">
<stop stop-color="#F9E87F"/>
<stop offset="0.406" stop-color="#E2B719"/>
<stop offset="0.989" stop-color="#E2B719"/>
</linearGradient>
</defs>
</svg>
